<svg version="1.0" xmlns="http://www.w3.org/2000/svg"
 width="64" height="64" viewBox="0 0 118.000000 46.000000"
 preserveAspectRatio="xMidYMid meet">

<g transform="translate(0.000000,46.000000) scale(0.100000,-0.100000)"
fill="#fbc001" stroke="none">
<path d="M633 426 c-84 -38 -66 -134 32 -172 30 -11 45 -23 45 -35 0 -25 -37
-35 -59 -15 -22 20 -81 22 -81 2 0 -17 36 -63 61 -76 15 -9 17 -8 13 5 -13 32
15 46 76 39 56 -6 57 -6 64 20 9 35 -3 81 -17 67 -13 -13 -47 14 -47 36 0 8
-14 19 -31 25 -20 7 -29 16 -26 27 2 9 10 14 18 12 40 -11 56 -10 74 4 19 15
19 16 -5 40 -32 31 -76 39 -117 21z"/>
<path d="M841 402 c-41 -20 -83 -49 -94 -64 -18 -24 -19 -30 -7 -55 13 -27 14
-27 18 -6 3 21 85 103 123 124 18 9 6 -22 -72 -187 l-28 -60 -53 7 c-38 5 -57
3 -67 -6 -11 -11 -7 -17 25 -39 46 -31 70 -33 98 -7 19 17 27 18 74 8 52 -11
52 -11 52 -49 0 -60 48 -62 70 -3 6 18 14 20 73 17 61 -4 107 8 107 27 0 4
-25 6 -55 3 -30 -2 -65 -2 -78 2 -22 5 -24 9 -19 58 2 32 11 58 20 66 28 21
31 13 9 -26 -26 -49 -18 -72 26 -72 25 0 42 9 72 40 46 47 42 54 -5 10 -33
-31 -70 -40 -70 -17 0 19 12 31 53 56 41 25 62 55 53 77 -7 19 -29 18 -57 -5
-14 -10 -41 -26 -62 -35 -42 -17 -42 -16 10 56 24 34 33 54 28 68 -13 40 -40
16 -90 -83 -27 -53 -60 -107 -73 -120 -21 -20 -21 -17 8 45 35 79 34 74 14 82
-12 4 -24 -12 -51 -70 -32 -70 -33 -78 -19 -92 14 -14 18 -14 42 9 l26 24 -13
-28 c-12 -26 -16 -28 -53 -22 -56 10 -62 18 -38 57 27 44 102 215 102 233 0
22 -18 18 -99 -23z m309 -115 c0 -2 -15 -16 -32 -33 l-33 -29 29 33 c28 30 36
37 36 29z m-160 -114 c0 -31 -15 -61 -25 -51 -7 7 13 78 21 78 2 0 4 -12 4
-27z m-235 -43 c-6 -9 -43 -2 -50 9 -2 4 9 5 25 3 17 -2 28 -8 25 -12z m204
-61 c-13 -26 -23 -18 -14 10 3 12 11 19 16 16 5 -4 5 -14 -2 -26z"/>
<path d="M20 280 l0 -150 40 0 40 0 0 55 0 55 45 0 c45 0 45 0 45 35 0 35 0
35 -45 35 -41 0 -45 2 -45 25 0 24 3 25 60 25 l60 0 0 35 0 35 -100 0 -100 0
0 -150z"/>
<path d="M246 403 c-3 -16 -8 -83 -12 -150 l-7 -123 36 0 c35 0 36 1 42 48 4
26 8 51 9 56 1 5 10 -17 21 -48 19 -56 19 -56 60 -56 l41 0 20 58 19 57 3 -57
3 -58 40 0 41 0 -6 73 c-3 39 -8 107 -12 150 l-6 77 -38 0 -38 0 -34 -95 -34
-95 -34 95 -35 95 -37 0 c-32 0 -37 -3 -42 -27z"/>
<path d="M964 375 c-9 -14 -13 -32 -10 -42 6 -14 11 -11 36 18 35 40 37 49 10
49 -11 0 -27 -11 -36 -25z"/>
</g>
</svg>
